<svg xmlns="http://www.w3.org/2000/svg" xmlns:xlink="http://www.w3.org/1999/xlink" viewBox="0 0 711.75 1110.07"><defs><style>.cls-1,.cls-2{stroke:#000;}.cls-1{stroke-miterlimit:10;fill:url(#Degradado_sin_nombre_20);}.cls-2{fill:none;stroke-linecap:round;stroke-linejoin:round;stroke-width:2px;}.cls-3{fill:#fff;}</style><linearGradient id="Degradado_sin_nombre_20" x1="355.88" y1="1085.39" x2="355.88" y2="15.25" gradientUnits="userSpaceOnUse"><stop offset="0.26" stop-color="#72ddf7"/><stop offset="0.97" stop-color="#ce7da5"/></linearGradient></defs><g id="degradado"><rect class="cls-1" width="711.75" height="1110.07"/></g><g id="logos"><path d="M213.77,382c6.12-.87,12.25,1.95,17.77,6,4.41,3.19,7.89,2.91,11.79-.61,36.36-32.78,76.57-58.56,120.51-77,32.39-13.59,65.81-22.73,100.89-22.66a110.4,110.4,0,0,1,21.49,2.64c4.65.93,7.4,0,10.34-3.95,7-9.46,16-15.24,27.53-15.41,15.79-.24,27.34,7.88,34.33,22.67,11.74,24.84,5,50.6-11.61,65a11.63,11.63,0,0,0-4.52,8.44c-2.22,25.34-12.72,47.23-25.17,68A318.94,318.94,0,0,1,460.91,504a36.54,36.54,0,0,0-2.73,2.83c-1.29,1.52-1.61,2.91.7,3.64a20.94,20.94,0,0,1,2.72.85c2,1,6-.12,5.54,3.75-.36,2.73-3.81,3.08-6.29,3.59q-7.39,1.53-14.79,3a23.15,23.15,0,0,0-10.15,5.1,492,492,0,0,1-43,31.35,22.35,22.35,0,0,0-10.08,14,625.85,625.85,0,0,0-15.74,85.63c-.75,6.46-1.45,12.93-2.49,19.35-.35,2.2-1,5.16-3.83,5-2-.12-3.05-2.35-3.69-4.25a87.86,87.86,0,0,1-3.55-14.9Q348.42,629.47,343.1,596c-1.3-8.17-2.13-8.61-9.24-5.5-26.32,11.51-53.25,20.68-81.55,24-22,2.54-43.85,2.45-65.11-5.88-22.64-8.87-40-32.35-39.77-60.06.23-24.6,8.13-46.23,18.86-67,3.38-6.57,7.22-12.86,11.14-19.07,2.86-4.54,3.65-8.29,1.45-14.07-7.86-20.75-3.19-42.85,10.91-56.52C196.67,385.18,203.91,382.11,213.77,382Zm244.8-88.16a163,163,0,0,0-38.34,4.17c-45.69,10.53-87.84,30.46-127.27,57.49-16.21,11.11-32.08,22.77-46.76,36.28-3.42,3.16-5.09,5.36-1.82,10.78,8.59,14.22,8.11,30.08,3.21,45.52-2.31,7.31-6.3,14.07-12.6,18.77-15.85,11.85-30.81,11.5-45.82-1.7-2.6-2.28-4.3-4.81-7.23-.21-14,21.89-25.69,45-29,71.8-3.5,28.35,6.83,51.24,29.41,63.1,18.89,9.92,39.27,12.2,59.82,10.25,32.45-3.07,63.47-12.73,93.52-26.33,3.17-1.44,4.73-3.3,4.2-6.84-2.39-15.91-6.19-30.9-20.52-39.53a53.43,53.43,0,0,0-16.74-6.56c-13.55-2.8-27.16-5.33-40.75-7.93-12.06-2.31-24.13-4.51-36.17-6.91-2.09-.42-4.64-1.12-4.84-4.07-.24-3.52,2.4-4.47,4.89-5.13a19.83,19.83,0,0,1,4.67-.57c10.68-.21,21.31-1.4,32-2.07A205.73,205.73,0,0,0,315,493.5c13-4.36,21.32-13.88,25.54-27.85A393.14,393.14,0,0,0,352.27,416c1.39-8.43,2.8-16.85,4.32-25.25.34-1.9.33-4.41,2.72-4.87,2.87-.54,3.65,2,4.59,4.18A75.26,75.26,0,0,1,369,406.56a201.49,201.49,0,0,0,15.56,49.49c11.29,24.29,28.21,41.49,52.27,50.12,7.88,2.82,13.92,1.15,19.72-4.76,21.61-22,42.48-44.76,58.32-72.33,9.73-16.94,17.76-34.73,21.43-54.51,1.56-8.43,1.4-8.8-6.53-8.05-18.31,1.73-30.67-7.53-38.74-24.63a52.2,52.2,0,0,1-2.75-38.9c1.58-5,.22-6.47-4.32-7.32A135.62,135.62,0,0,0,458.57,293.88ZM526,277.09c-10,0-15.92,2.48-22.16,8.87-5.35,5.47-5.2,7,1.53,10.46,20.54,10.59,34.8,26.43,37.17,52.39.15,1.65,0,3.77,2,4.09,1.71.27,2.57-1.61,3.62-2.83,12.9-15.15,13.15-38.11,6.06-52.67C548.06,284.73,539.19,276.48,526,277.09Zm11.66,73.61c-.76-4.26-1.16-10.68-3.51-16.81-6-15.82-17-25.69-31-32.24-7.21-3.36-9.71-2.57-11,5.46-2,12.73-1.18,25.25,5.32,36.58,7.83,13.68,23.61,20.85,35.34,16.42C536.2,358.84,538.32,357,537.69,350.7ZM391.88,552.37a11,11,0,0,0,1.69-.82c8.9-6.19,18-12,26.22-19.38a11.87,11.87,0,0,0,1.57-2.33c-.88-.11-1.86-.57-2.61-.28a156,156,0,0,0-14.83,6,26.72,26.72,0,0,0-13,13.95C390.33,550.85,389.92,552.1,391.88,552.37Z"/><path class="cls-2" d="M188.73,454.6a8.69,8.69,0,0,0-5.68,4.1c-13.9,20.73-25.69,42.7-31,68-5.14,24.54-2.52,47.54,15.09,65.78,9.61,10,22,14.75,34.78,17.56,19.44,4.25,38.81,3.77,58.46.3a284.68,284.68,0,0,0,64-18.94c8.67-3.75,17.61-6.16,26.45-9.11"/><path class="cls-2" d="M541.22,355.74c-1.26-7.21-1.58-14.82-4-21.55-5.39-15.2-15.9-25.55-29-33.09-13.34-7.67-27.75-9.67-42.44-10.2-28.28-1-55.24,5.92-82.07,15.14-21.29,7.32-41.41,17.06-61.22,28-19.47,10.75-37.39,24.13-55.67,37-11.23,7.88-20.06,19.13-32,25.91"/><path class="cls-2" d="M539.33,364c1.53,7.27-1.19,13.85-2.83,20.6-5.38,22.19-16.18,41.3-28.24,59.75-15.12,23.15-33.8,42.63-52.94,61.61-2.31,2.29-3.87,4-3.64,7.36"/><path class="cls-2" d="M360.26,667.76c0,4.83-.27,9.68.94,14.42"/><path class="cls-2" d="M492.21,297c.23,5.27-3.51,9.25-3.81,14.41-1.29,22.21,5.94,40.9,25.48,50.48,7.75,3.79,17.08,4.05,23.22.33,8-4.81,16.14-11.23,20.31-21.89,8.94-22.79,3.09-42.6-8.8-56.57s-39.39-14.5-50.79,6c-.76,1.35-2.28,2.19-1.84,4.15"/><path class="cls-2" d="M234.91,511.75c-4.74-.83-9.47-1.08-14.14.51"/><path class="cls-2" d="M359.32,385.6c2.17,3.84-.34,8.53,1.88,12.36"/><path class="cls-2" d="M428.12,518.44c1,7.4-.89,12.7-7.44,16.68C413,539.76,406,545.65,399,551.47c-6.41,5.34-12.82,6.26-19.85,2"/><path class="cls-2" d="M467.71,514.32c-5,2.17-10.06-.5-15.08,0"/><path class="cls-3" d="M64.41,88c-2.24-7.78-4.33-15.68-14.87-16.12l.57-1.08c1.45-.35,2.9-.78,4.37-1,4.1-.71,6.7-2.8,7.34-7.14.55-3.67,1.4-7.29,2.12-10.93.13-.63.33-1.24.75-2.78a14.31,14.31,0,0,1,1.4,2.71c.71,3.53,1.3,7.08,2,10.62,1,5.12,1.92,6.09,7.11,7.07,2.33.43,4.67.76,7,1.19.83.16,1.63.48,2.44.72l.07.76a13.72,13.72,0,0,1-2.19.66c-2.79.38-5.58.74-8.38,1-3.64.35-5.64,2.52-6.57,5.84-.57,2.06-.94,4.17-1.45,6.25a19.88,19.88,0,0,1-.75,2.08Z"/><path class="cls-3" d="M638.42,88c-2.23-7.78-4.33-15.68-14.87-16.12l.57-1.08c1.46-.35,2.91-.78,4.38-1,4.09-.71,6.69-2.8,7.34-7.14.55-3.67,1.39-7.29,2.12-10.93.13-.63.33-1.24.75-2.78a14.1,14.1,0,0,1,1.39,2.71c.71,3.53,1.31,7.08,2,10.62.95,5.12,1.92,6.09,7.11,7.07,2.32.43,4.67.76,7,1.19.83.16,1.63.48,2.44.72l.07.76a13.52,13.52,0,0,1-2.2.66c-2.78.38-5.57.74-8.37,1-3.65.35-5.64,2.52-6.57,5.84-.58,2.06-.95,4.17-1.46,6.25a19.81,19.81,0,0,1-.74,2.08Z"/></g></svg>