<svg xmlns="http://www.w3.org/2000/svg" viewBox="0 0 566.93 566.93"><defs><style>.cls-1{fill:none;stroke:#000;stroke-linecap:round;stroke-linejoin:round;stroke-width:2px;}</style></defs><g id="logos"><path d="M141.36,188.92c6.11-.87,12.25,2,17.77,6,4.4,3.2,7.88,2.92,11.79-.61,36.36-32.78,76.56-58.56,120.51-77,32.39-13.59,65.81-22.73,100.89-22.67a110.5,110.5,0,0,1,21.49,2.64c4.65.93,7.4,0,10.33-3.95,7-9.46,16-15.23,27.54-15.41,15.79-.24,27.33,7.89,34.33,22.68,11.74,24.83,5,50.59-11.62,65a11.69,11.69,0,0,0-4.51,8.45c-2.23,25.34-12.73,47.22-25.18,68a318.65,318.65,0,0,1-56.2,68.87,33.35,33.35,0,0,0-2.73,2.84c-1.29,1.51-1.62,2.91.7,3.64a19.33,19.33,0,0,1,2.71.84c2.06,1,6.05-.11,5.55,3.75-.36,2.74-3.82,3.08-6.29,3.6-4.93,1-9.86,2-14.79,3a23.27,23.27,0,0,0-10.16,5.09,490.32,490.32,0,0,1-43,31.35,22.35,22.35,0,0,0-10.08,14,624.89,624.89,0,0,0-15.74,85.63c-.75,6.46-1.46,12.94-2.49,19.35-.35,2.2-1,5.16-3.83,5-2-.12-3.06-2.34-3.69-4.25a87.86,87.86,0,0,1-3.55-14.9q-5.07-33.48-10.39-66.91c-1.3-8.16-2.14-8.6-9.25-5.49-26.31,11.51-53.24,20.68-81.54,23.95-22,2.55-43.85,2.45-65.11-5.88-22.64-8.87-40-32.35-39.77-60.06.23-24.6,8.13-46.22,18.85-67.05,3.38-6.56,7.23-12.86,11.15-19.07,2.86-4.54,3.65-8.28,1.45-14.07-7.87-20.75-3.19-42.84,10.91-56.52C124.26,192.05,131.5,189,141.36,188.92Zm244.79-88.16a162.52,162.52,0,0,0-38.34,4.17c-45.68,10.52-87.83,30.45-127.26,57.48-16.21,11.12-32.09,22.78-46.76,36.29-3.42,3.15-5.09,5.36-1.82,10.78,8.58,14.22,8.11,30.08,3.21,45.52-2.31,7.3-6.3,14.06-12.6,18.77-15.85,11.85-30.81,11.49-45.83-1.71-2.59-2.28-4.29-4.81-7.22-.21-14,21.9-25.69,45-29,71.8C77,372,87.36,394.9,109.94,406.75c18.89,9.92,39.26,12.2,59.82,10.25,32.45-3.07,63.47-12.73,93.52-26.33,3.17-1.43,4.72-3.3,4.19-6.84-2.38-15.91-6.18-30.9-20.52-39.53a53,53,0,0,0-16.73-6.55c-13.56-2.81-27.16-5.33-40.75-7.94-12.06-2.3-24.13-4.51-36.17-6.91-2.09-.42-4.65-1.12-4.85-4.07-.23-3.52,2.41-4.47,4.89-5.13a20,20,0,0,1,4.68-.56c10.68-.22,21.31-1.4,32-2.07a205.65,205.65,0,0,0,52.56-10.69c13.05-4.37,21.33-13.88,25.55-27.85a393.29,393.29,0,0,0,11.77-49.7c1.39-8.42,2.79-16.85,4.32-25.25.34-1.89.32-4.41,2.72-4.86,2.86-.55,3.65,2,4.59,4.17a75.59,75.59,0,0,1,5.05,16.54,200.93,200.93,0,0,0,15.56,49.49c11.29,24.29,28.21,41.49,52.27,50.12,7.88,2.83,13.92,1.16,19.72-4.76,21.6-22,42.48-44.76,58.32-72.33,9.73-16.94,17.75-34.72,21.43-54.5,1.56-8.43,1.4-8.8-6.53-8.06-18.31,1.73-30.67-7.53-38.74-24.62a52.22,52.22,0,0,1-2.75-38.91c1.57-5,.21-6.47-4.33-7.31A133.83,133.83,0,0,0,386.15,100.76ZM453.62,84c-10,0-15.92,2.48-22.16,8.87-5.35,5.48-5.2,7,1.52,10.47,20.55,10.58,34.81,26.42,37.18,52.38.15,1.65,0,3.78,2,4.09,1.71.28,2.57-1.6,3.61-2.83,12.91-15.15,13.16-38.11,6.07-52.67C475.65,91.61,466.78,83.36,453.62,84Zm11.66,73.62c-.77-4.27-1.16-10.68-3.51-16.82-6-15.81-17-25.68-31-32.23-7.21-3.37-9.71-2.57-11,5.45-2,12.74-1.17,25.25,5.32,36.59,7.84,13.68,23.61,20.84,35.35,16.42C463.78,165.71,465.91,163.86,465.28,157.58ZM319.47,359.24a11.83,11.83,0,0,0,1.68-.81c8.91-6.19,18.05-12,26.22-19.39a11.83,11.83,0,0,0,1.58-2.32c-.88-.12-1.87-.57-2.62-.29a158.48,158.48,0,0,0-14.82,6,26.76,26.76,0,0,0-13,13.95C317.91,357.72,317.51,359,319.47,359.24Z"/><path class="cls-1" d="M116.32,261.47a8.72,8.72,0,0,0-5.68,4.1c-13.9,20.74-25.69,42.7-31,68-5.14,24.53-2.52,47.53,15.08,65.77,9.62,10,22,14.75,34.79,17.56,19.44,4.26,38.81,3.77,58.46.3a285.18,285.18,0,0,0,64-18.93c8.66-3.76,17.61-6.16,26.44-9.12"/><path class="cls-1" d="M468.81,162.61c-1.26-7.21-1.58-14.81-4-21.54-5.39-15.21-15.9-25.55-29-33.09-13.35-7.68-27.76-9.67-42.44-10.21-28.28-1-55.24,5.92-82.07,15.15-21.29,7.31-41.41,17-61.22,28-19.47,10.75-37.39,24.14-55.67,37-11.23,7.89-20.06,19.13-31.95,25.91"/><path class="cls-1" d="M466.92,170.85c1.53,7.27-1.19,13.84-2.83,20.59-5.39,22.19-16.18,41.3-28.24,59.76-15.12,23.15-33.81,42.62-52.94,61.6-2.31,2.3-3.87,4-3.64,7.37"/><path class="cls-1" d="M287.85,474.64c0,4.82-.27,9.68.94,14.41"/><path class="cls-1" d="M419.8,103.91c.23,5.27-3.51,9.25-3.81,14.42-1.29,22.2,5.94,40.9,25.48,50.47,7.75,3.8,17.08,4,23.22.33,8-4.81,16.13-11.23,20.31-21.89,8.94-22.78,3.08-42.6-8.8-56.57s-39.39-14.5-50.8,6c-.75,1.35-2.27,2.19-1.83,4.15"/><path class="cls-1" d="M162.5,318.62c-4.74-.82-9.47-1.08-14.14.52"/><path class="cls-1" d="M286.91,192.47c2.17,3.84-.34,8.53,1.88,12.36"/><path class="cls-1" d="M355.71,325.32c1,7.4-.89,12.69-7.44,16.67-7.66,4.65-14.73,10.53-21.73,16.36-6.4,5.33-12.81,6.25-19.84,2"/><path class="cls-1" d="M395.29,321.2c-5,2.17-10.05-.5-15.08,0"/></g></svg>