<svg id="Capa_1" data-name="Capa 1" xmlns="http://www.w3.org/2000/svg" viewBox="0 0 566.93 566.93"><path d="M256.24,481c-22.59-78.65-43.77-158.55-150.33-162.94l5.75-10.93c14.75-3.53,29.36-7.86,44.27-10.45,41.39-7.17,67.65-28.28,74.21-72.16,5.55-37.07,14.06-73.7,21.42-110.49,1.27-6.37,3.34-12.59,7.54-28.16,7.26,13.79,12.67,20.24,14.13,27.49,7.18,35.68,13.19,71.59,19.86,107.37,9.64,51.74,19.43,61.56,71.92,71.41,23.48,4.41,47.16,7.71,70.65,12.09,8.39,1.56,16.47,4.81,24.69,7.29l.67,7.68c-7.38,2.29-14.62,5.66-22.18,6.68-28.15,3.82-56.36,7.42-84.65,10.08-36.89,3.48-57.07,25.48-66.45,59.06-5.81,20.79-9.55,42.16-14.69,63.14-1.76,7.21-5,14.05-7.54,21.06Z"/></svg>